# Blender v2.79 (sub 0) OBJ File: 'demo level.blend'
# www.blender.org
mtllib demo level gold.mtl
o Cylinder
v -1.769179 0.000000 -1.904554
v -1.769179 0.570398 -1.904554
v -1.712546 0.000000 -1.886153
v -1.712546 0.570398 -1.886153
v -1.677545 0.000000 -1.837978
v -1.677545 0.570398 -1.837978
v -1.677545 0.000000 -1.778431
v -1.677545 0.570398 -1.778431
v -1.712546 0.000000 -1.730256
v -1.712546 0.570398 -1.730256
v -1.769179 0.000000 -1.711855
v -1.769179 0.570398 -1.711855
v -1.825811 0.000000 -1.730256
v -1.825811 0.570398 -1.730256
v -1.860812 0.000000 -1.778431
v -1.860812 0.570398 -1.778431
v -1.860812 0.000000 -1.837978
v -1.860812 0.570398 -1.837978
v -1.825811 0.000000 -1.886153
v -1.825811 0.570398 -1.886153
v -1.760854 0.473942 -1.807685
v -1.622602 0.579558 -1.707240
v -1.813660 0.579558 -1.645161
v -1.931744 0.579558 -1.807685
v -1.813660 0.579558 -1.970209
v -1.622602 0.579558 -1.908130
v -1.708047 0.750449 -1.645161
v -1.899106 0.750449 -1.707240
v -1.899106 0.750449 -1.908130
v -1.708047 0.750449 -1.970209
v -1.589964 0.750449 -1.807685
v -1.760854 0.856064 -1.807685
v 1.769179 0.000000 -1.904554
v 1.769179 0.570398 -1.904554
v 1.712546 0.000000 -1.886153
v 1.712546 0.570398 -1.886153
v 1.677545 0.000000 -1.837978
v 1.677545 0.570398 -1.837978
v 1.677545 0.000000 -1.778431
v 1.677545 0.570398 -1.778431
v 1.712546 0.000000 -1.730256
v 1.712546 0.570398 -1.730256
v 1.769179 0.000000 -1.711855
v 1.769179 0.570398 -1.711855
v 1.825811 0.000000 -1.730256
v 1.825811 0.570398 -1.730256
v 1.860812 0.000000 -1.778431
v 1.860812 0.570398 -1.778431
v 1.860812 0.000000 -1.837978
v 1.860812 0.570398 -1.837978
v 1.825811 0.000000 -1.886153
v 1.825811 0.570398 -1.886153
v 1.760854 0.473942 -1.807685
v 1.622602 0.579558 -1.707240
v 1.813660 0.579558 -1.645161
v 1.931744 0.579558 -1.807685
v 1.813660 0.579558 -1.970209
v 1.622602 0.579558 -1.908130
v 1.708047 0.750449 -1.645161
v 1.899106 0.750449 -1.707240
v 1.899106 0.750449 -1.908130
v 1.708047 0.750449 -1.970209
v 1.589964 0.750449 -1.807685
v 1.760854 0.856064 -1.807685
v -1.769179 0.000000 1.904554
v -1.769179 0.570398 1.904554
v -1.712546 0.000000 1.886153
v -1.712546 0.570398 1.886153
v -1.677545 0.000000 1.837978
v -1.677545 0.570398 1.837978
v -1.677545 0.000000 1.778431
v -1.677545 0.570398 1.778431
v -1.712546 0.000000 1.730256
v -1.712546 0.570398 1.730256
v -1.769179 0.000000 1.711855
v -1.769179 0.570398 1.711855
v -1.825811 0.000000 1.730256
v -1.825811 0.570398 1.730256
v -1.860812 0.000000 1.778431
v -1.860812 0.570398 1.778431
v -1.860812 0.000000 1.837978
v -1.860812 0.570398 1.837978
v -1.825811 0.000000 1.886153
v -1.825811 0.570398 1.886153
v -1.760854 0.473942 1.807685
v -1.622602 0.579558 1.707240
v -1.813660 0.579558 1.645161
v -1.931744 0.579558 1.807685
v -1.813660 0.579558 1.970209
v -1.622602 0.579558 1.908130
v -1.708047 0.750449 1.645161
v -1.899106 0.750449 1.707240
v -1.899106 0.750449 1.908130
v -1.708047 0.750449 1.970209
v -1.589964 0.750449 1.807685
v -1.760854 0.856064 1.807685
v 1.769179 0.000000 1.904554
v 1.769179 0.570398 1.904554
v 1.712546 0.000000 1.886153
v 1.712546 0.570398 1.886153
v 1.677545 0.000000 1.837978
v 1.677545 0.570398 1.837978
v 1.677545 0.000000 1.778431
v 1.677545 0.570398 1.778431
v 1.712546 0.000000 1.730256
v 1.712546 0.570398 1.730256
v 1.769179 0.000000 1.711855
v 1.769179 0.570398 1.711855
v 1.825811 0.000000 1.730256
v 1.825811 0.570398 1.730256
v 1.860812 0.000000 1.778431
v 1.860812 0.570398 1.778431
v 1.860812 0.000000 1.837978
v 1.860812 0.570398 1.837978
v 1.825811 0.000000 1.886153
v 1.825811 0.570398 1.886153
v 1.760854 0.473942 1.807685
v 1.622602 0.579558 1.707240
v 1.813660 0.579558 1.645161
v 1.931744 0.579558 1.807685
v 1.813660 0.579558 1.970209
v 1.622602 0.579558 1.908130
v 1.708047 0.750449 1.645161
v 1.899106 0.750449 1.707240
v 1.899106 0.750449 1.908130
v 1.708047 0.750449 1.970209
v 1.589964 0.750449 1.807685
v 1.760854 0.856064 1.807685
vt 0.000000 0.000000
vt 1.000000 0.000000
vt 1.000000 1.000000
vt 0.000000 0.000000
vt 1.000000 0.000000
vt 1.000000 1.000000
vt 1.000000 0.000000
vt 1.000000 1.000000
vt 1.000000 0.000000
vt 1.000000 1.000000
vt 1.000000 0.000000
vt 1.000000 0.000000
vt 1.000000 1.000000
vt 0.000000 0.000000
vt 1.000000 1.000000
vt 0.000000 0.000000
vt 1.000000 1.000000
vt 0.000000 0.000000
vt 1.000000 1.000000
vt 0.000000 0.000000
vt 1.000000 1.000000
vt 1.000000 0.000000
vt 1.000000 0.000000
vt 1.000000 0.000000
vt 1.000000 0.000000
vt 1.000000 0.000000
vt 0.000000 0.000000
vt 1.000000 1.000000
vt 0.000000 0.000000
vt 0.000000 0.000000
vt 0.000000 0.000000
vt 0.000000 0.000000
vt 0.000000 0.000000
vt 1.000000 1.000000
vt 1.000000 0.000000
vt 0.000000 0.000000
vt 1.000000 1.000000
vt 1.000000 0.000000
vt 1.000000 1.000000
vt 1.000000 0.000000
vt 1.000000 1.000000
vt 1.000000 0.000000
vt 1.000000 0.000000
vt 1.000000 1.000000
vt 1.000000 0.000000
vt 0.000000 0.000000
vt 1.000000 1.000000
vt 0.000000 0.000000
vt 1.000000 1.000000
vt 0.000000 0.000000
vt 1.000000 1.000000
vt 0.000000 0.000000
vt 1.000000 1.000000
vt 1.000000 0.000000
vt 1.000000 0.000000
vt 1.000000 0.000000
vt 1.000000 0.000000
vt 1.000000 0.000000
vt 0.000000 0.000000
vt 1.000000 1.000000
vt 0.000000 0.000000
vt 0.000000 0.000000
vt 0.000000 0.000000
vt 0.000000 0.000000
vt 0.000000 0.000000
vt 1.000000 1.000000
vt 1.000000 0.000000
vt 0.000000 0.000000
vt 1.000000 1.000000
vt 1.000000 0.000000
vt 1.000000 1.000000
vt 1.000000 0.000000
vt 1.000000 1.000000
vt 1.000000 0.000000
vt 1.000000 0.000000
vt 1.000000 1.000000
vt 1.000000 0.000000
vt 0.000000 0.000000
vt 1.000000 1.000000
vt 0.000000 0.000000
vt 1.000000 1.000000
vt 0.000000 0.000000
vt 1.000000 1.000000
vt 0.000000 0.000000
vt 1.000000 1.000000
vt 1.000000 0.000000
vt 1.000000 0.000000
vt 1.000000 0.000000
vt 1.000000 0.000000
vt 1.000000 0.000000
vt 0.000000 0.000000
vt 1.000000 1.000000
vt 0.000000 0.000000
vt 0.000000 0.000000
vt 0.000000 0.000000
vt 0.000000 0.000000
vt 0.000000 0.000000
vt 1.000000 0.000000
vt 1.000000 1.000000
vt 0.000000 0.000000
vt 1.000000 0.000000
vt 1.000000 1.000000
vt 1.000000 0.000000
vt 1.000000 1.000000
vt 1.000000 0.000000
vt 1.000000 1.000000
vt 1.000000 0.000000
vt 1.000000 0.000000
vt 1.000000 1.000000
vt 0.000000 0.000000
vt 1.000000 1.000000
vt 0.000000 0.000000
vt 1.000000 1.000000
vt 0.000000 0.000000
vt 1.000000 1.000000
vt 0.000000 0.000000
vt 1.000000 1.000000
vt 1.000000 0.000000
vt 1.000000 0.000000
vt 1.000000 0.000000
vt 1.000000 0.000000
vt 1.000000 0.000000
vt 0.000000 0.000000
vt 1.000000 1.000000
vt 0.000000 0.000000
vt 0.000000 0.000000
vt 0.000000 0.000000
vt 0.000000 0.000000
vt 1.000000 0.000000
vt 0.000000 1.000000
vt 0.000000 0.000000
vt 1.000000 0.000000
vt 0.000000 1.000000
vt 0.000000 0.000000
vt 1.000000 0.000000
vt 0.000000 1.000000
vt 0.000000 0.000000
vt 1.000000 0.000000
vt 0.000000 1.000000
vt 0.000000 0.000000
vt 1.000000 0.000000
vt 0.000000 1.000000
vt 0.000000 0.000000
vt 1.000000 0.000000
vt 0.000000 1.000000
vt 0.000000 0.000000
vt 1.000000 0.000000
vt 0.000000 1.000000
vt 0.000000 0.000000
vt 1.000000 0.000000
vt 0.000000 1.000000
vt 0.000000 0.000000
vt 1.000000 0.000000
vt 0.000000 1.000000
vt 0.000000 0.000000
vt 1.000000 0.000000
vt 0.000000 1.000000
vt 0.000000 0.000000
vt 0.000000 1.000000
vt 1.000000 0.000000
vt 0.000000 0.000000
vt 0.000000 1.000000
vt 1.000000 0.000000
vt 0.000000 0.000000
vt 0.000000 1.000000
vt 1.000000 0.000000
vt 0.000000 0.000000
vt 0.000000 1.000000
vt 1.000000 0.000000
vt 0.000000 0.000000
vt 0.000000 1.000000
vt 1.000000 0.000000
vt 0.000000 0.000000
vt 0.000000 1.000000
vt 1.000000 0.000000
vt 0.000000 0.000000
vt 0.000000 1.000000
vt 1.000000 0.000000
vt 0.000000 0.000000
vt 0.000000 1.000000
vt 1.000000 0.000000
vt 0.000000 0.000000
vt 0.000000 1.000000
vt 1.000000 0.000000
vt 0.000000 0.000000
vt 0.000000 1.000000
vt 1.000000 0.000000
vt 0.000000 0.000000
vt 0.000000 1.000000
vt 1.000000 0.000000
vt 0.000000 0.000000
vt 0.000000 1.000000
vt 1.000000 0.000000
vt 0.000000 0.000000
vt 0.000000 1.000000
vt 1.000000 0.000000
vt 0.000000 0.000000
vt 0.000000 1.000000
vt 1.000000 0.000000
vt 0.000000 0.000000
vt 0.000000 1.000000
vt 1.000000 0.000000
vt 0.000000 0.000000
vt 0.000000 1.000000
vt 1.000000 0.000000
vt 0.000000 0.000000
vt 0.000000 1.000000
vt 1.000000 0.000000
vt 0.000000 0.000000
vt 0.000000 1.000000
vt 1.000000 0.000000
vt 0.000000 0.000000
vt 0.000000 1.000000
vt 1.000000 0.000000
vt 0.000000 0.000000
vt 0.000000 1.000000
vt 1.000000 0.000000
vt 0.000000 0.000000
vt 1.000000 0.000000
vt 0.000000 1.000000
vt 0.000000 0.000000
vt 1.000000 0.000000
vt 0.000000 1.000000
vt 0.000000 0.000000
vt 1.000000 0.000000
vt 0.000000 1.000000
vt 0.000000 0.000000
vt 1.000000 0.000000
vt 0.000000 1.000000
vt 0.000000 0.000000
vt 1.000000 0.000000
vt 0.000000 1.000000
vt 0.000000 0.000000
vt 1.000000 0.000000
vt 0.000000 1.000000
vt 0.000000 0.000000
vt 1.000000 0.000000
vt 0.000000 1.000000
vt 0.000000 0.000000
vt 1.000000 0.000000
vt 0.000000 1.000000
vt 0.000000 0.000000
vt 1.000000 0.000000
vt 0.000000 1.000000
vt 0.000000 0.000000
vt 1.000000 0.000000
vt 0.000000 1.000000
vt 0.000000 0.000000
vt 1.000000 1.000000
vt 1.000000 1.000000
vt 1.000000 1.000000
vt 1.000000 1.000000
vt 1.000000 1.000000
vt 1.000000 1.000000
vt 1.000000 1.000000
vt 1.000000 1.000000
vt 1.000000 1.000000
vt 1.000000 1.000000
vt 1.000000 1.000000
vt 1.000000 1.000000
vt 1.000000 1.000000
vt 1.000000 1.000000
vt 1.000000 1.000000
vt 1.000000 1.000000
vt 1.000000 1.000000
vt 1.000000 1.000000
vt 1.000000 1.000000
vt 1.000000 1.000000
vt 1.000000 1.000000
vt 1.000000 1.000000
vt 1.000000 1.000000
vt 1.000000 1.000000
vt 1.000000 1.000000
vt 1.000000 1.000000
vt 1.000000 1.000000
vt 1.000000 1.000000
vt 1.000000 1.000000
vt 1.000000 1.000000
vt 1.000000 1.000000
vt 1.000000 1.000000
vt 1.000000 1.000000
vt 1.000000 1.000000
vt 1.000000 1.000000
vt 1.000000 1.000000
vt 1.000000 1.000000
vt 1.000000 1.000000
vt 1.000000 1.000000
vt 1.000000 1.000000
vn 0.0000 -1.0000 0.0000
vn 0.7236 -0.4472 0.5257
vn -0.2764 -0.4472 0.8506
vn 0.7236 -0.4472 -0.5257
vn -0.8944 -0.4472 0.0000
vn -0.2764 -0.4472 -0.8506
vn 0.8944 0.4472 0.0000
vn 0.2764 0.4472 0.8506
vn -0.7236 0.4472 0.5257
vn -0.7236 0.4472 -0.5257
vn 0.2764 0.4472 -0.8506
vn 0.0000 1.0000 0.0000
vn 0.2764 -0.4472 0.8506
vn -0.7236 -0.4472 0.5257
vn -0.7236 -0.4472 -0.5257
vn 0.8944 -0.4472 0.0000
vn 0.2764 -0.4472 -0.8506
vn -0.8944 0.4472 0.0000
vn -0.2764 0.4472 0.8506
vn 0.7236 0.4472 0.5257
vn 0.7236 0.4472 -0.5257
vn -0.2764 0.4472 -0.8506
vn 0.0000 0.0000 -1.0000
vn 0.4498 -0.6437 -0.6191
vn 0.0000 -0.6437 -0.7653
vn 0.5878 0.0000 -0.8090
vn 0.7278 -0.6437 -0.2365
vn 0.9510 0.0000 -0.3090
vn 0.7278 -0.6437 0.2365
vn 0.9510 0.0000 0.3090
vn 0.4498 -0.6437 0.6191
vn 0.5878 0.0000 0.8090
vn 0.0000 -0.6437 0.7653
vn 0.0000 0.0000 1.0000
vn -0.4498 -0.6437 0.6191
vn -0.5878 0.0000 0.8090
vn -0.7278 -0.6437 0.2365
vn -0.9510 0.0000 0.3090
vn -0.7278 -0.6437 -0.2365
vn -0.9510 0.0000 -0.3090
vn -0.4498 -0.6437 -0.6191
vn -0.5878 0.0000 -0.8090
usemtl None
s 1
f 21/1/1 22/2/2 23/3/3
f 22/4/2 21/5/1 26/6/4
f 21/1/1 23/7/3 24/8/5
f 21/1/1 24/9/5 25/10/6
f 21/1/1 25/11/6 26/6/4
f 22/4/2 26/12/4 31/13/7
f 23/14/3 22/2/2 27/15/8
f 24/16/5 23/7/3 28/17/9
f 25/18/6 24/9/5 29/19/10
f 26/20/4 25/11/6 30/21/11
f 22/4/2 31/22/7 27/15/8
f 23/14/3 27/23/8 28/17/9
f 24/16/5 28/24/9 29/19/10
f 25/18/6 29/25/10 30/21/11
f 26/20/4 30/26/11 31/13/7
f 27/27/8 31/22/7 32/28/12
f 28/29/9 27/23/8 32/28/12
f 29/30/10 28/24/9 32/28/12
f 30/31/11 29/25/10 32/28/12
f 31/32/7 30/26/11 32/28/12
f 53/33/1 55/34/13 54/35/14
f 54/36/14 58/37/15 53/38/1
f 53/33/1 56/39/16 55/40/13
f 53/33/1 57/41/17 56/42/16
f 53/33/1 58/37/15 57/43/17
f 54/36/14 63/44/18 58/45/15
f 55/46/13 59/47/19 54/35/14
f 56/48/16 60/49/20 55/40/13
f 57/50/17 61/51/21 56/42/16
f 58/52/15 62/53/22 57/43/17
f 54/36/14 59/47/19 63/54/18
f 55/46/13 60/49/20 59/55/19
f 56/48/16 61/51/21 60/56/20
f 57/50/17 62/53/22 61/57/21
f 58/52/15 63/44/18 62/58/22
f 59/59/19 64/60/12 63/54/18
f 60/61/20 64/60/12 59/55/19
f 61/62/21 64/60/12 60/56/20
f 62/63/22 64/60/12 61/57/21
f 63/64/18 64/60/12 62/58/22
f 85/65/1 87/66/6 86/67/4
f 86/68/4 90/69/2 85/70/1
f 85/65/1 88/71/5 87/72/6
f 85/65/1 89/73/3 88/74/5
f 85/65/1 90/69/2 89/75/3
f 86/68/4 95/76/7 90/77/2
f 87/78/6 91/79/11 86/67/4
f 88/80/5 92/81/10 87/72/6
f 89/82/3 93/83/9 88/74/5
f 90/84/2 94/85/8 89/75/3
f 86/68/4 91/79/11 95/86/7
f 87/78/6 92/81/10 91/87/11
f 88/80/5 93/83/9 92/88/10
f 89/82/3 94/85/8 93/89/9
f 90/84/2 95/76/7 94/90/8
f 91/91/11 96/92/12 95/86/7
f 92/93/10 96/92/12 91/87/11
f 93/94/9 96/92/12 92/88/10
f 94/95/8 96/92/12 93/89/9
f 95/96/7 96/92/12 94/90/8
f 117/97/1 118/98/15 119/99/17
f 118/100/15 117/101/1 122/102/14
f 117/97/1 119/103/17 120/104/16
f 117/97/1 120/105/16 121/106/13
f 117/97/1 121/107/13 122/102/14
f 118/100/15 122/108/14 127/109/18
f 119/110/17 118/98/15 123/111/22
f 120/112/16 119/103/17 124/113/21
f 121/114/13 120/105/16 125/115/20
f 122/116/14 121/107/13 126/117/19
f 118/100/15 127/118/18 123/111/22
f 119/110/17 123/119/22 124/113/21
f 120/112/16 124/120/21 125/115/20
f 121/114/13 125/121/20 126/117/19
f 122/116/14 126/122/19 127/109/18
f 123/123/22 127/118/18 128/124/12
f 124/125/21 123/119/22 128/124/12
f 125/126/20 124/120/21 128/124/12
f 126/127/19 125/121/20 128/124/12
f 127/128/18 126/122/19 128/124/12
usemtl None_silver.png
f 2/129/23 3/130/24 1/131/25
f 4/132/26 5/133/27 3/134/24
f 6/135/28 7/136/29 5/137/27
f 8/138/30 9/139/31 7/140/29
f 10/141/32 11/142/33 9/143/31
f 12/144/34 13/145/35 11/146/33
f 14/147/36 15/148/37 13/149/35
f 16/150/38 17/151/39 15/152/37
f 18/153/40 19/154/41 17/155/39
f 20/156/42 1/157/25 19/158/41
f 7/140/29 15/152/37 19/158/41
f 35/159/41 34/160/23 33/161/25
f 37/162/39 36/163/42 35/164/41
f 39/165/37 38/166/40 37/167/39
f 41/168/35 40/169/38 39/170/37
f 43/171/33 42/172/36 41/173/35
f 45/174/31 44/175/34 43/176/33
f 47/177/29 46/178/32 45/179/31
f 49/180/27 48/181/30 47/182/29
f 51/183/24 50/184/28 49/185/27
f 33/186/25 52/187/26 51/188/24
f 47/182/29 37/167/39 35/164/41
f 67/189/31 66/190/34 65/191/33
f 69/192/29 68/193/32 67/194/31
f 71/195/27 70/196/30 69/197/29
f 73/198/24 72/199/28 71/200/27
f 75/201/25 74/202/26 73/203/24
f 77/204/41 76/205/23 75/206/25
f 79/207/39 78/208/42 77/209/41
f 81/210/37 80/211/40 79/212/39
f 83/213/35 82/214/38 81/215/37
f 65/216/33 84/217/36 83/218/35
f 79/212/39 69/197/29 67/194/31
f 98/219/34 99/220/35 97/221/33
f 100/222/36 101/223/37 99/224/35
f 102/225/38 103/226/39 101/227/37
f 104/228/40 105/229/41 103/230/39
f 106/231/42 107/232/25 105/233/41
f 108/234/23 109/235/24 107/236/25
f 110/237/26 111/238/27 109/239/24
f 112/240/28 113/241/29 111/242/27
f 114/243/30 115/244/31 113/245/29
f 116/246/32 97/247/33 115/248/31
f 103/230/39 111/242/27 115/248/31
f 2/129/23 4/249/26 3/130/24
f 4/132/26 6/250/28 5/133/27
f 6/135/28 8/251/30 7/136/29
f 8/138/30 10/252/32 9/139/31
f 10/141/32 12/253/34 11/142/33
f 12/144/34 14/254/36 13/145/35
f 14/147/36 16/255/38 15/148/37
f 16/150/38 18/256/40 17/151/39
f 18/153/40 20/257/42 19/154/41
f 20/156/42 2/258/23 1/157/25
f 19/158/41 1/157/25 7/140/29
f 3/134/24 5/137/27 7/140/29
f 7/140/29 9/143/31 11/146/33
f 11/146/33 13/149/35 7/140/29
f 15/152/37 17/155/39 19/158/41
f 1/157/25 3/134/24 7/140/29
f 7/140/29 13/149/35 15/152/37
f 35/159/41 36/259/42 34/160/23
f 37/162/39 38/260/40 36/163/42
f 39/165/37 40/261/38 38/166/40
f 41/168/35 42/262/36 40/169/38
f 43/171/33 44/263/34 42/172/36
f 45/174/31 46/264/32 44/175/34
f 47/177/29 48/265/30 46/178/32
f 49/180/27 50/266/28 48/181/30
f 51/183/24 52/267/26 50/184/28
f 33/186/25 34/268/23 52/187/26
f 35/164/41 33/186/25 47/182/29
f 51/188/24 49/185/27 47/182/29
f 47/182/29 45/179/31 39/170/37
f 43/176/33 41/173/35 39/170/37
f 39/170/37 37/167/39 47/182/29
f 33/186/25 51/188/24 47/182/29
f 45/179/31 43/176/33 39/170/37
f 67/189/31 68/269/32 66/190/34
f 69/192/29 70/270/30 68/193/32
f 71/195/27 72/271/28 70/196/30
f 73/198/24 74/272/26 72/199/28
f 75/201/25 76/273/23 74/202/26
f 77/204/41 78/274/42 76/205/23
f 79/207/39 80/275/40 78/208/42
f 81/210/37 82/276/38 80/211/40
f 83/213/35 84/277/36 82/214/38
f 65/216/33 66/278/34 84/217/36
f 67/194/31 65/216/33 79/212/39
f 83/218/35 81/215/37 79/212/39
f 79/212/39 77/209/41 71/200/27
f 75/206/25 73/203/24 71/200/27
f 71/200/27 69/197/29 79/212/39
f 65/216/33 83/218/35 79/212/39
f 77/209/41 75/206/25 71/200/27
f 98/219/34 100/279/36 99/220/35
f 100/222/36 102/280/38 101/223/37
f 102/225/38 104/281/40 103/226/39
f 104/228/40 106/282/42 105/229/41
f 106/231/42 108/283/23 107/232/25
f 108/234/23 110/284/26 109/235/24
f 110/237/26 112/285/28 111/238/27
f 112/240/28 114/286/30 113/241/29
f 114/243/30 116/287/32 115/244/31
f 116/246/32 98/288/34 97/247/33
f 115/248/31 97/247/33 103/230/39
f 99/224/35 101/227/37 103/230/39
f 103/230/39 105/233/41 107/236/25
f 107/236/25 109/239/24 103/230/39
f 111/242/27 113/245/29 115/248/31
f 97/247/33 99/224/35 103/230/39
f 103/230/39 109/239/24 111/242/27
