# Blender v2.79 (sub 0) OBJ File: 'demo level.blend'
# www.blender.org
mtllib demo level floor.mtl
o Cube
v -2.000000 0.000000 -0.000000
v 2.000000 0.000000 0.000001
v 2.000001 0.000000 -1.999999
v 1.999999 0.000000 2.000001
v -2.000000 0.000000 1.999999
v -2.000000 0.000000 -2.000000
vt 1.500000 -0.500000
vt -0.500000 1.500000
vt -0.500000 -0.500000
vt 1.500000 1.500000
vt -2.000000 -2.000000
vt 3.000000 3.000000
vt -2.000000 3.000000
vt 3.000000 -2.000000
vn 0.0000 1.0000 0.0000
usemtl Material
s off
f 6/1/1 2/2/1 3/3/1
f 6/1/1 1/4/1 2/2/1
usemtl Material_MetalPlate02.png
f 2/5/1 5/6/1 4/7/1
f 2/5/1 1/8/1 5/6/1
